# xmcd CD database file
#
# Track frame offsets:
#	150
#	21743
#	40805
#	58580
#	74860
#	91328
#	112058
#	131778
#	150460
#	170090
#	184478
#	202425
#	221890
#
# Disc length: 3258 seconds
#
# Revision: 0
# Processed by: cddbd v1.5.1PL0 Copyright (c) Steve Scherf et al.
# Submitted via: CDex 1.51
#
DISCID=dc0cb80d
DTITLE=細川たかし - ふたり道 Disc 2
DYEAR=1995
DGENRE=Country
TTITLE0=佐渡の恋唄
TTITLE1=望郷じょんから
TTITLE2=北国へ
TTITLE3=心のこり
TTITLE4=ミオ ミオ ミオ
TTITLE5=ああ、いい女
TTITLE6=北緯五十度
TTITLE7=心凍らせて
TTITLE8=北斗の星
TTITLE9=港夜景
TTITLE10=浪花節だよ人生は
TTITLE11=応援歌、いきます
TTITLE12=酒と泪と男と女
EXTD=YEAR: 1995
EXTT0=
EXTT1=
EXTT2=
EXTT3=
EXTT4=
EXTT5=
EXTT6=
EXTT7=
EXTT8=
EXTT9=
EXTT10=
EXTT11=
EXTT12=
PLAYORDER=
